<?xml version="1.0" encoding="UTF-8"?>
<svg id="Layer_1" data-name="Layer 1" xmlns="http://www.w3.org/2000/svg" viewBox="0 0 131.12 55.84">
  <defs>
    <style>
      .cls-1 {
        fill: #e16236;
      }

      .cls-2 {
        fill: #9cbd57;
      }

      .cls-3 {
        fill: #eeb047;
      }
    </style>
  </defs>
  <polygon class="cls-3" points="82.57 .08 82.64 0 103.13 0 131.12 27.99 103.27 55.84 82.64 55.84 110.48 27.99 82.57 .08"/>
  <polygon class="cls-2" points="41.28 .08 41.36 0 61.85 0 89.84 27.99 72.25 45.58 61.99 55.84 41.35 55.84 51.61 45.58 61.93 35.26 69.19 27.99 41.28 .08"/>
  <polygon class="cls-1" points="0 .08 .08 0 20.57 0 20.64 .08 48.55 27.99 41.28 35.26 30.96 45.58 20.71 55.84 .06 55.84 10.31 45.58 20.64 35.26 27.91 27.99 0 .08"/>
</svg>