<?xml version="1.0" encoding="UTF-8"?>
<svg id="Layer_1" data-name="Layer 1" xmlns="http://www.w3.org/2000/svg" viewBox="0 0 208.14 302.95">
  <defs>
    <style>
      .cls-1 {
        stroke:#565656;
        stroke-miterlimit: 10;
        stroke-width: 1px;
      }
    </style>
  </defs>
  <path class="cls-1" d="M10.03,224.9c4.03,5.96,8.93,11.21,14.63,15.6,4.82,3.71,10.84,6.72,13.54,12.47.58,1.22,2.33,1.53,3.42.89,1.24-.72,1.47-2.2.9-3.42-2.82-6-8.76-9.41-13.91-13.18-3.57-2.62-6.85-5.66-9.76-9.01.01,0,.02.01.03.01,4.99,1.76,10.04,3.37,15.13,4.82,20.73,5.89,42.24,9.15,63.78,9.72,10.55.28,21.15-.03,31.64-1.16,9.55-1.02,19.27-2.91,27.67-7.8,7.59-4.41,13.45-11.35,15.87-19.86,2.24-7.85.96-16.24-4.43-22.51-8.8-10.23-24.22-10.55-36.5-12.73-6.22-1.11-12.31-2.47-17.38-6.05-.57-.4-.85-.61-1.51-1.21-.55-.49-1.08-1-1.57-1.55-.99-1.1-1.8-2.27-2.59-3.79-2.13-4.13-2.39-8.93-1.92-13.47.46-4.53,1.78-9.03,3.42-13.27,1.53-3.95,3.57-7.86,6.24-11.15,2.61-3.22,5.85-6.1,9.69-7.74,3.23-1.39,6.8-1.82,10.3-1.45,3.2.35,6.62,1.62,9.05,3.81,3.02,2.73,4.37,6.6,4.65,10.64.34,4.92-.41,9.84-.45,14.76-.03,4.28.86,8.41,2.88,12.2,1.85,3.46,4.7,6.55,8.45,7.92,4.32,1.58,8.81-.06,12.06-3.05,3.4-3.12,5.97-7.41,7.84-11.58,1.94-4.32,3.26-8.86,4-13.54,2.83-17.97-1.4-36.81-9.66-52.84-8.1-15.72-20.56-29.21-35.78-38.25-2.78-1.65-5.29,2.67-2.52,4.31,3.51,2.09,6.89,4.4,10.07,6.97,13.27,10.76,23.47,25.27,29.02,41.44,2.79,8.14,4.48,16.68,4.71,25.28.25,9.03-1.07,18.36-5.29,26.45-1.87,3.57-4.48,8.09-8.3,9.86-2.95,1.37-5.73.19-7.91-2.12-2.46-2.58-3.94-6.21-4.43-9.71-.62-4.47.22-9.17.36-13.67.15-4.86-.29-9.87-2.68-14.2-1.8-3.27-4.74-5.93-8.11-7.51-7.01-3.31-15.57-2.98-22.36.74-8.03,4.41-13.22,12.42-16.51,20.74-3.34,8.46-5.59,18.68-2.57,27.56,2.26,6.65,7.33,11.6,13.68,14.4,6.08,2.68,12.65,3.76,19.17,4.76,6.42.99,12.98,1.84,19.11,4.1,2.28.83,5.36,2.42,7.18,3.92,2.45,2.02,4.27,4.21,5.44,7.19,2.81,7.13.58,15.2-3.63,21.28-4.92,7.11-13.07,11.1-21.21,13.3-9.43,2.54-19.35,3.13-29.07,3.49-10.58.4-21.19.12-31.74-.8-20.15-1.77-40.05-6.01-59.19-12.52,6.94-1.48,13.71-3.66,20.28-6.5,1.25-.54,1.51-2.36.9-3.42-.74-1.26-2.19-1.43-3.42-.89-9.05,3.91-18.75,6.48-28.55,7.56-1.72.19-3.33,2.03-2.16,3.76Z"/>
</svg>
