<?xml version="1.0" encoding="UTF-8"?>
<svg id="Layer_1" data-name="Layer 1" xmlns="http://www.w3.org/2000/svg" viewBox="0 0 128.59 153.66">
  <defs>
    <style>
      .cls-1 {
        fill: #fff;
      }
    </style>
  </defs>
  <path class="cls-1" d="M30.57,52.99c-.14,1.02-.06,2.15.11,3.12.46,2.62,1.48,5.08,2.67,7.44,10.88,21.72,18.5,44.91,22.66,68.79,2.6-8.93,7-17.28,12.99-24.52.86-1.04,2.65-.88,3.53,0,1.02,1.02.86,2.5,0,3.54-8.13,9.85-13.12,22.28-14.07,35.01-.09,1.24-.85,2.07-1.81,2.34h-.02c-.77.22-1.67.05-2.44-.57-.3-.25-.61-.5-.9-.76t-.01-.01c-9.33-8.03-15.07-19.68-25.32-26.69-1.11-.76-1.62-2.18-.89-3.42.64-1.11,2.3-1.66,3.42-.9,8.83,6.05,14.46,15.25,21.62,22.94-1.97-13.41-5.08-26.64-9.26-39.53-2.19-6.76-4.67-13.44-7.46-19.99-1.41-3.3-2.89-6.56-4.44-9.8-1.37-2.85-2.9-5.63-3.99-8.6-1.75-4.77-2.64-11.28,1.86-14.86,5.58-4.46,12.22-.38,17.14,3.01,5.33,3.69,11.62,6.76,18.15,7.48,1.39.15,2.87.14,4.09-.63.64-.4,1.22-1.17,1.45-1.74.8-1.94.62-4.25.2-6.36-.58-2.88-1.7-5.58-2.75-8.3-1.39-3.62-2.82-7.22-4.29-10.8-2.84-6.98-5.81-13.9-8.91-20.76-.55-1.24-.37-2.68.9-3.42,1.08-.63,2.87-.34,3.42.89,3.54,7.85,6.92,15.77,10.14,23.75,1.64,4.04,3.23,8.1,4.77,12.17,1.07,2.81,1.85,5.72,2.02,8.72.15,2.56-.24,5.36-1.69,7.52-1.75,2.6-4.6,3.92-7.69,4.02-3.42.11-7.06-.95-10.27-2.05-3.28-1.13-6.46-2.61-9.42-4.42-2.74-1.69-5.25-3.75-8.16-5.15-2.11-1.01-4.78-1.52-6.45.4-.43.5-.81,1.47-.9,2.14Z"/>
  <path class="cls-1" d="M56.63,148.71c-.34.17-.71.27-1.07.27-1.13,0-1.91-.68-2.27-1.6.29.26.6.51.9.76.77.62,1.67.79,2.44.57Z"/>
</svg>